/* XPM */
static char *ff0a5e64962048368a83c76bde68a521mImrjAidqUQF32ne[] = {
/* columns rows colors chars-per-pixel */
"64 64 162 2 ",
"   c None",
".  c gray4",
"X  c #121212",
"o  c #1D1C1D",
"O  c #22140F",
"+  c #251510",
"@  c #231814",
"#  c #2D1A14",
"$  c #241D1C",
"%  c #2A1D1A",
"&  c #351D16",
"*  c #391F17",
"=  c #2C201D",
"-  c #35211A",
";  c #3B231B",
":  c #211F20",
">  c #242324",
",  c #2A2524",
"<  c #282728",
"1  c #2D2B2C",
"2  c #3E2B25",
"3  c #312E2F",
"4  c #3D2F2B",
"5  c #312F31",
"6  c #343334",
"7  c #383637",
"8  c #383738",
"9  c #3C3B3B",
"0  c #41271F",
"q  c #41281F",
"w  c #432921",
"e  c #4A2E25",
"r  c #502D22",
"t  c #4C322A",
"y  c #553226",
"u  c #54342A",
"i  c #5D382C",
"p  c #4E3C37",
"a  c #433A38",
"s  c #5E3C31",
"d  c #643E32",
"f  c #754D26",
"g  c #754C2C",
"h  c #7C522E",
"j  c #654034",
"k  c #6B4539",
"l  c #6F483C",
"z  c #734B33",
"x  c #724B3E",
"c  c #7C5337",
"v  c #403F40",
"b  c #444343",
"n  c #4A474A",
"m  c #4B4A4B",
"M  c #5C4D4B",
"N  c #53504F",
"B  c #504F50",
"V  c #555355",
"C  c #5C5354",
"Z  c #575658",
"A  c #585658",
"S  c #5C5B5C",
"D  c #754D41",
"F  c #63514D",
"G  c #745045",
"H  c #795144",
"J  c #70564F",
"K  c #7D5649",
"L  c #605454",
"P  c #6D5955",
"I  c #6B5D5B",
"U  c #7B5C53",
"Y  c #725C58",
"T  c #795E58",
"R  c #73625F",
"E  c #7C625B",
"W  c #5F5D60",
"Q  c #615E60",
"!  c #646364",
"~  c #696769",
"^  c #6C6B6C",
"/  c #716F71",
"(  c #747274",
")  c #787678",
"_  c #7D7C7D",
"`  c #865B3E",
"'  c #8C6037",
"]  c #8F633E",
"[  c #815743",
"{  c #835A4C",
"}  c #865D50",
"|  c #885E51",
" . c #8C6044",
".. c #8B604B",
"X. c #916541",
"o. c #936649",
"O. c #9D6F49",
"+. c #806057",
"@. c #8D6355",
"#. c #84645B",
"$. c #89655B",
"%. c #8B685E",
"&. c #906457",
"*. c #9D6F55",
"=. c #916558",
"-. c #966A5C",
";. c #996C5E",
":. c #9E705A",
">. c #816861",
",. c #8F6B60",
"<. c #846E6A",
"1. c #9C6F61",
"2. c #847263",
"3. c #84736A",
"4. c #957065",
"5. c #9E7062",
"6. c #9F7568",
"7. c #837573",
"8. c #8B7B77",
"9. c #967C74",
"0. c #A06F60",
"q. c #A37262",
"w. c #A87362",
"e. c #A97463",
"r. c #AA7564",
"t. c #AB7665",
"y. c #AD7766",
"u. c #A97564",
"i. c #A1776A",
"p. c #A27A6E",
"a. c #817F81",
"s. c #807E80",
"d. c #838183",
"f. c #848284",
"g. c #868586",
"h. c #858485",
"j. c #878588",
"k. c #898689",
"l. c #8C898C",
"z. c #8F8D8F",
"x. c #8B8B8B",
"c. c #908E90",
"v. c #939293",
"b. c #939093",
"n. c #959495",
"m. c #949394",
"M. c #9A979A",
"N. c #989798",
"B. c #9B9A9B",
"V. c #9C9B9C",
"C. c #9E9C9E",
"Z. c #9C9C9C",
"A. c #A78F8A",
"S. c #A19EA1",
"D. c #A3A3A3",
"F. c #A9A7A9",
"G. c #ABAAAB",
"H. c #ACABAC",
"J. c #B2B0B2",
"K. c #B5B4B5",
"L. c #B9B7B9",
"P. c #BAB8BA",
/* pixels */
"                                                                                                                                ",
"                                                                                                                                ",
"                                                                                                                                ",
"                                                          6 8 6 o < 9 9                                                         ",
"                                                    6 ! o m M.( n _ m.M.~ o 8 1                                                 ",
"                                                . ~ C.C.A > n 8 > 7 9 v n < k.) < X                                             ",
"                                            6 ^ 9 z.f.A , + - - & - - - % 1 / S n 6 n o                                         ",
"                                          S C.F.b > 6 % t K =.| l &.=.=.D ; $ 3 > ~ b.n >                                       ",
"                                        o ( f.Z , O ; j -.1.5.=.D 1.5.1.-.k D e @ S ~ V 7 X                                     ",
"                                      S ( 6 9 % t K { H 1.1.1.=.D q.t.1.-.x ;.-.x ; = 1 > _ !                                   ",
"                                    6 ( d.1 # K -.5.@.K @.{ ;.=.D q.t.1.-.x ;.5.&.k K - Q j.^ 8                                 ",
"                                  8 b.^ 8 2 d =.5.1.@.K } h :.=.D q.t.1.-.x w.q.@.D 1.{ 4 < 6 1 X                               ",
"                                  n V.b.1 u D @.1.1.@.K | h :.=.D q.t.1.-.x e.q.@.D 1.;.e > f.c.m                               ",
"                                b S 6 m 4 s D @.w.5.@.K } h :.=.D q.t.1.-.x 0.5.@.D 1.;.u a ( / v X                             ",
"                                / J.~ < t @.D @.y.q.@.K @.` :.=.D 1.5.1.-.x ;.1.@.D 1.-.d ; 1 > b <                             ",
"                              6 m.d.S % D 1.D @.y.5.@.H 1.1.1.=.D 1.1.1.-.x ;.1.@.D 1.-.x k , ! B.S X                           ",
"                              8 ! b : e -.1.D @.y.q.@.H 1.1.1.=.D 1.1.1.-.x ;.1.@.D 1.-.x @.w b b 7 o                           ",
"                              S l.( 7 e ;.1.D @.t.q.@.H 1.1.1.=.D 1.;.K &.x ;.1.@.D &.K x =.w Z _ ^ 8                           ",
"                              a.P.g.7 e ;.1.D @.5.1.@.H 1.1.1.=.D 1.-.z X.x ;.1.@.D @.g z =.w ( G.g.7                           ",
"                              V _ B > e ;.1.D @.1.1.@.H 1.1.1.=.D 1.;.z X.x ;.1.@.D @.g z =.w n _ B >                           ",
"                              b S Z 1 e ;.1.D @.1.1.@.H q.q.1.=.D 1.;.z X.x ;.1.@.D @.g z =.q n ~ Z 1                           ",
"                              ~ D.x.8 e ;.1.D @.1.1.@.D q.t.1.=.D 1.;.z X.x ;.1.@.D @.f z 4.p _ H.x.8                           ",
"                              7 Z 9 o e ;.1.D @.1.1.@.D q.t.1.=.D 1.;.z X.x ;.1.@.D ,.2.3.7.m v V 8 o                           ",
"                              ~ M.d.9 e ;.1.D @.1.1.@.D q.t.1.=.D 1.;.z X.x ;.1.@.D R ~ ^ ! 9 S S ~ b                           ",
"                              ^ F.z.6 e ;.-.D @.1.1.@.D q.t.1.=.D 1.;.z X.x ;.1.@.D I S S W 9 V ~ f.7                           ",
"                              9 ! n o e =.x z @.1.1.@.D q.t.1.=.D 1.;.z X.x ;.1.@.D E P M C 7 < b n o                           ",
"                              S d.( 8 e =.g g @.1.1.@.D q.t.1.=.D 1.;.z &.x ;.1.@.D 1.-.x $.2 ! g.^ 8                           ",
"                              ( K.m.7 e =.z g @.;.*.@.H q.q.1.=.D 1.;.D =.x ;.1.@.D 1.-.x =.w ( G.m.8                           ",
"                              n _ Z > e =.z z @.*.O.@.H 1.1.1.=.D 1.1.=.-.x ;.1.@.D 1.-.x =.w n ( Z >                           ",
"                              7 6 m 6 e -.| x @.*.O.@.H 1.1.1.=.D 1.1.1.-.x ;.1.@.D 1.;.x =.w n ( ! 6                           ",
"                              n ~ C.S e ;.1.D @.*.O.@.H 1.1.1.=.D 1.1.1.-.x ;.1.@.D q.q.x =.w ( H.F.S                           ",
"                              m z.m.b e ;.1.D @.*.O.@.H 1.1.1.=.D 1.1.1.-.x ;.1.@.D q.q.x =.w ~ G.b.b                           ",
"                              b ~ n o e ;.1.D @.1.;.@.H 1.1.1.=.D 1.1.1.-.x ;.1.@.D q.q.x =.w b S 9 o                           ",
"                              V _ ^ 9 e ;.1.D @.1.1.@.H 1.1.1.=.D 1.1.1.-.x ;.1.@.D q.q.x =.w n n ~ 8                           ",
"                              ( G.B.n e ;.1.x @.5.5.@.H 1.1.1.=.D 1.q.q.-.x ;.1.@.D q.q.x =.w ~ ~ ( 8                           ",
"                              ~ f.! 3 e ;.6.#.#.%.%.U G 1.1.1.=.D 1.t.q.-.x ;.1.@.D q.q.x =.w ~ _ B <                           ",
"                              7 8 5 o e ;.p.9.7.<.E F F -.1.1.=.D 1.t.q.-.x ;.1.@.D 1.-.x =.w 7 n 5 o                           ",
"                              ! b._ 9 e ;.1.K A.i.1.#.U 1.1.1.=.D 1.t.q.-.x ;.1.@.D 1.-.x =.w ! x._ 9                           ",
"                              ( F._ 6 e ;.1.G <.1.1.%.T 1.1.1.=.D 1.t.q.-.x ;.1.@.D 1.-.x =.w ( H._ 6                           ",
"                              b S 8 o e ;.1.D U E #.J G 1.1.1.=.D 1.t.q.-.x ;.1.@.D 1.-.x =.w b S 8 o                           ",
"                              V f.( 8 e ;.1.D @.%.#.} H 1.1.1.=.D 1.t.q.-.x ;.;.@.D 1.-.x =.w B ) ~ 9                           ",
"                              a.L.C.n e ;.5.D @.1.5.@.H 1.1.1.=.D 1.t.q.-.x ;.{ x x 1.-.x =.w ~ F.C.m                           ",
"                              ~ D.( 1 e w.q.D @.1.1.@.H 1.1.1.=.D 1.t.q.-.x ;.{ f x 1.-.x =.w ! D.( 1                           ",
"                              S x.A < e w.q.D @.1.1.@.H 1.1.1.=.D 1.t.q.-.x ;.{ f x 1.-.x =.w S x.A <                           ",
"                              1 8 > o e w.q.D @.=.K ..H 1.1.1.=.D 1.5.5.-.x ;.{ f x 1.-.x =.w 7 m 8 >                           ",
"                              S S ~ V e w.q.D &.@.g  .K 1.;.1.=.D 1.1.1.-.x ;.{ f x 1.-.x =.w ( F.B.Z                           ",
"                              n ~ x.m e w.q.D &.=.g  .K @.[ :.=.D 1.1.1.-.x ;.{ g x 1.-.x =.w ( F.C.m                           ",
"                              m g.~ 1 e q.q.D &.=.g  .K | h :.=.D 1.1.1.-.x ;.{ D D 1.-.x -.t ~ C.) 6                           ",
"                              b S 8 o e ;.1.D &.&.g { K } c :.=.D 1.1.1.-.x ;.;.@.D 5.9.>.8.N b A 8 o                           ",
"                              A _ ^ 9 e ;.1.D &.=.g { D -.=.1.&.D 1.1.1.-.x ;.1.@.D E ^ / ! 8 A _ ^ 9                           ",
"                              _ G.D.S e ;.1.D &.=.g  .K 1.1.1.&.D 1.1.1.-.x ;.1.@.D I ! ! ! 9 ( m._ n                           ",
"                              ~ D.D.S e ;.1.D &.=.g  .K 1.1.1.&.D 1.1.1.-.x ;.1.@.D Y L M C 8 ~ ! ~ b                           ",
"                              ! C.m.n e ;.1.D &.=.g  .K 1.1.1.=.D 1.q.q.-.x ;.1.@.D 1.-.x +.4 b S Q 5                           ",
"                              ~ x.S 1 e ;.1.D &.@.z ..K 1.1.1.=.D 1.t.q.-.x ;.1.@.D 1.-.x =.w Z ( B 1                           ",
"                              7 n 6 o e { o.D @.-.@.@.H 1.1.1.=.D 1.t.q.-.x ;.1.@.D 1.-.x =.w 7 n 6 o                           ",
"                              ~ S.z.n e x ' D @.1.5.@.H 1.1.1.=.D 1.t.q.-.x ;.1.@.D -...z =.w ~ M.g.m                           ",
"                              ^ F.B.V e H ] D @.1.1.@.H 1.1.1.=.D 1.t.q.-.x ;.1.@.D @.f z =.w ~ F._ 9                           ",
"                              ! C.^ 5 e -.;.D @.1.1.@.H 1.1.1.=.D 1.t.q.-.x ;.1.@.D @.z z =.w ! m.Q 1                           ",
"                              ~ z.A 1 e ;.1.D @.1.1.@.H 1.1.1.=.D 1.w.q.-.x ;.1.@.D -.@.x =.w ~ g.V 1                           ",
"                              8 m 6 o 0 | 5.D @.1.1.@.H 1.1.5.=.D 1.1.1.-.x ;.1.@.D 1.-.x &.w 8 m 6 o                           ",
"                              S d.^ 8 & k @.D @.1.5.@.H 5.1.@.K k @.1.1.-.x ;.5.@.D ;.x d D & A _ _ 9                           ",
"                              ( b.! 6 * e d x @.-.-.{ D -.K y r e y K -.&.l -.-.@.x D r y i & ~ D._ 6                           ",
"                              9 n 8 $ + & - - 0 w w w w w - & & & & - w w w w w w w - & & & O n S 9 :                           ",
"                                                                                                                                "
};
