/* XPM */
static char *f60f60432eed4482b76722fe358130a7tfmrA0W3kU3Ix68A[] = {
/* columns rows colors chars-per-pixel */
"64 62 167 2 ",
"   c None",
".  c #090705",
"X  c #0B0906",
"o  c #0F0B08",
"O  c #130D0A",
"+  c #16100B",
"@  c #1C140E",
"#  c #1F1610",
"$  c #201710",
"%  c #251A13",
"&  c #2A1D15",
"*  c #351F14",
"=  c #272614",
"-  c #2D2116",
";  c #252E14",
":  c #2F2218",
">  c #342215",
",  c #392516",
"<  c #342C14",
"1  c #392B17",
"2  c #342419",
"3  c #3B2619",
"4  c #372C1A",
"5  c #3D2A1B",
"6  c #2F3215",
"7  c #243B13",
"8  c #2F3A13",
"9  c #333414",
"0  c #383317",
"q  c #353A16",
"w  c #373619",
"e  c #3C351A",
"r  c #373F18",
"t  c #3B3C1A",
"y  c #3F2D20",
"u  c #3F3920",
"i  c #422D1D",
"p  c #44321E",
"a  c #423A1E",
"s  c #442E20",
"d  c #463121",
"f  c #4B3423",
"g  c #4A3C23",
"h  c #503726",
"j  c #513927",
"k  c #523728",
"l  c #553B29",
"z  c #593E2B",
"x  c #1F4E13",
"c  c #1E5312",
"v  c #1D5E12",
"b  c #224413",
"n  c #2C4312",
"m  c #204A13",
"M  c #2C4B13",
"N  c #324315",
"B  c #324C16",
"V  c #3C441C",
"C  c #374B19",
"Z  c #3C4B1C",
"A  c #275611",
"S  c #2A5312",
"D  c #275A11",
"F  c #2B5C14",
"G  c #315617",
"H  c #305C17",
"J  c #355419",
"K  c #3A551C",
"L  c #345C19",
"P  c #3C5D1E",
"I  c #1B6A12",
"U  c #197211",
"Y  c #1C7212",
"T  c #1E7710",
"R  c #187911",
"E  c #187B11",
"W  c #1F7D10",
"Q  c #256111",
"!  c #256511",
"~  c #2E6417",
"^  c #236A11",
"/  c #226F10",
"(  c #246B11",
")  c #2B6B16",
"_  c #2E6A19",
"`  c #33641A",
"'  c #3B661F",
"]  c #336E1C",
"[  c #3C681F",
"{  c #217410",
"}  c #217611",
"|  c #247014",
" . c #237512",
".. c #2B7416",
"X. c #227A12",
"o. c #227B12",
"O. c #2A7B16",
"+. c #33731B",
"@. c #39741E",
"#. c #307C1A",
"$. c #307E1A",
"%. c #337A1C",
"&. c #387A1D",
"*. c #3F6321",
"=. c #3E6520",
"-. c #3C6E21",
";. c #3E7221",
":. c #41441F",
">. c #404C1E",
",. c #40501E",
"<. c #444520",
"1. c #4B4424",
"2. c #444E21",
"3. c #4B4D25",
"4. c #514427",
"5. c #534428",
"6. c #5B402D",
"7. c #5C402C",
"8. c #5D412D",
"9. c #5E412D",
"0. c #5E422D",
"q. c #5D412E",
"w. c #5D432E",
"e. c #5F432E",
"r. c #5D412D",
"t. c #544B2A",
"y. c #594B2C",
"u. c #445322",
"i. c #4B5224",
"p. c #435C22",
"a. c #4C5D26",
"s. c #55542B",
"d. c #505E29",
"f. c #60432F",
"g. c #61452F",
"h. c #60442F",
"j. c #614430",
"k. c #624530",
"l. c #456423",
"z. c #4C6026",
"x. c #456825",
"c. c #4B6B27",
"v. c #4D6C28",
"b. c #4F6E29",
"n. c #457325",
"m. c #1C860F",
"M. c #1C880F",
"N. c #178510",
"B. c #1D8110",
"V. c #1D8710",
"C. c #1F8711",
"Z. c #208512",
"A. c #268215",
"S. c #298416",
"D. c #268915",
"F. c #278916",
"G. c #258B16",
"H. c #258D15",
"J. c #258E16",
"K. c #2D8018",
"L. c #2D8519",
"P. c #2B8A18",
"I. c #35841E",
"U. c #279417",
"Y. c #32901D",
"T. c #3C8221",
"R. c #3E8B23",
/* pixels */
"                                                                                                                                ",
"                                                                                                                                ",
"                                                                                                                                ",
"                                                                                                                                ",
"                                                                                                                                ",
"                                              c = 7 E                    .      / n < A                                         ",
"                                            m ; & = 7                 n M m.  ^ n < > 9 M                                       ",
"                                    E I v c ; & & & - b v c U       S < < D Q M < , , * 9                                       ",
"                                    Y 7 = = - & & & & = = = x N.T M < > > < < < 2 , , , 9 X.                                    ",
"                                    | 6 & & & & > 2 > & & & ; b n 6 > > > > > , 5 i 5 , < C                                     ",
"                                    H w 2 - & > 3 3 2 & & & & & - > , , 2 , , 5 d d i 3 3 p P                                   ",
"                                  F e i 5 2 2 3 5 5 3 > & & & & & > 2 5 5 5 i p j j d i i d P                                   ",
"                                  M 5 i i 3 3 5 i i 3 > & & & & > , i d d i d f z z h d s f *.                                  ",
"                                  M 5 i i 3 , 3 i i 5 2 > & > 2 3 i f l j f d j 8.8.l f h z x.                H.                ",
"                                  M , 5 i 5 , , 5 i i 5 3 2 3 i f l 8.8.z f f j 8.8.l h l 8.v.                H.                ",
"        V.  V.B.                  S 1 i i i 3 , 5 i i i 5 5 s f z f.k.8.j d f j 6.z j j z g.v.          H.  H.G.                ",
"        Z.V. . .                  ~ t p d d i 5 i d d i 5 i f l 8.f.8.j d d f l z j f l 8.g.c.          G.G.K.#.P.L.#.U.        ",
"        O.H N M W                   G e i i 5 5 i d d 5 3 i d j z 8.z f d d j z l f d l w.y.n.          O.L u.i.u.p.l.Y.        ",
"        #.Z 0 < D ^ ! M.             .q 3 i 5 5 i i i 5 , 5 d h z z z f d d l z l f d l y.d.T.          O.Z g l l 4.z.          ",
"          +.V 5 < 8 M W              .9 , 5 5 5 5 i 5 , , 5 d j 8.k.8.j d p f j f f f l t.T.              ` :.f h 3.I.          ",
"            J 5 , 9 A                .q , 5 5 i i 5 3 , 3 i d j f.k.8.j d i d f f f f l s.                K <.g 1.*.            ",
"            F q 1 N                 O.q 3 5 i d i i 5 5 i i d j 8.f.6.j d d f f f f f z s.              ` a 1.a.l.&.            ",
"              S < N                 O.q 3 5 i f d i i i i i d f z z z f d f j l l j f h 3.              P g u.T.                ",
"              ( 0 q F               O.q 3 5 d f f d i d d d d f j l l f f f z 6.8.l f f 3.            =.u.1.=.                  ",
"              A.C e e F             O.t 3 5 i d d i i d f d d d j z z j h j 6.k.g.z j k 3.I.    R.a.l z 5.i.@.                  ",
"                ) C e V Z Z         ..t i i i i 5 3 5 d f f f f z 8.8.8.z z 8.k.8.j d f 4.i.,.Z 2.1.h l i.;.                    ",
"                  ) Z a p p C ..    L a s i i 5 2 - 2 5 i d f z f.k.k.k.g.8.8.8.z d 2 d j j d i d f g 2.[                       ",
"                    X.S N w e e e e p d d d i 2 & % % & - 5 f z 6.8.k.k.8.z z f i 2 & s f f i 5 e Z P %.                        ",
"                        A S t i i i i i i p i 3 & $ + + @ & 3 s f z g.g.8.j f 5 & @ @ 2 d a e q G `                             ",
"                            H V p i 5 5 5 i i 5 & @ O X o + # % 2 d 6.8.z f i - + O + 2 e Z B D                                 ",
"                              ) B q 0 3 3 5 5 5 , & @ O O O + @ & 5 f z l d 2 % + # : u u.%.                                    ",
"                                  S B e 5 i 5 3 5 3 > % % & & - 2 5 d j l f 5 2 : 2 d u.;.                                      ",
"                                    o.B e p i 5 5 5 5 5 i f j j j j f l z z z j j j j -.                                        ",
"                                      ) C d s i i 5 i i d l z 8.8.z j j l z z z 8.z l @.                                        ",
"                                        ` p d d i 5 3 5 p l z l z z j f j z z z z h g ]                                         ",
"                                        F 5 i i 3 2 2 5 i f d s d f f f f 8.f.z d 5 5 _                                         ",
"                                        F 5 i s 5 2 - 2 i d s 5 y d f d d z 8.z s 3 5 _                                         ",
"                                        F 1 i d 5 2 & - 5 d s 5 5 d f 5 5 f j j 5 3 d ]                                         ",
"                                        ^ 9 5 i 3 2 & & 2 5 5 2 5 5 5 & : s d y 2 2 e ]                                         ",
"                                          M e i 3 2 & & & 2 - & % % % + % 2 5 2 & 2 4 _                                         ",
"                                           .Z d i 2 & & & % @ O o X X X O & : - & & 4 )                                         ",
"                                          A.Z d d 5 > & % + O X . . . . X O + + $ & 4 _                                         ",
"                                          S.2.f f i 2 & @ O X . . . . . . . . X # 2 u +.                                        ",
"                                          S.Z d d i 2 % + X X . . X X X . . . O & u u.I.                                        ",
"                                          O.Z i s d 5 & + X X X X X X X X X . O 2 V ;.                                          ",
"                                          ` t 3 i d d - @ + O O X O + + O X O @ 2 Z                                             ",
"                                        ' :.5 3 5 i i > % % % @ O + & & @ O $ 2 d u.                                            ",
"                                      ` V i 5 5 5 i i 3 2 3 3 2 % & 2 2 & % 2 s f 1.*.                                          ",
"                                    ` t i 5 3 5 5 i d d i i d d 5 5 5 2 2 5 d f i d g =.                                        ",
"                                  H t 5 3 3 , 1 0 0 0 5 i i d f j j f d d l l f i s f 1.p.                                      ",
"                                H r 5 1 < 0 < 0 n M n 0 5 i d h z z l 1.4.t.5.f i i d f 1.' @.                                  ",
"                          ..C 5 1 2 2 9 n M M S     X.B e p d f f g 2.p.p.p.>.a p i i i p g f 1.%.                              ",
"                        ! F B q q 9 8 S !             ) G C V :.V K ]       ` H Z V V V V :.<.2.` S.                            ",
"                      Q S S S S S S A                     ` L L L ..            ` L L L L L L L L ..                            ",
"                                                                                                                                ",
"                                                                                                                                ",
"                                                                                                                                ",
"                                                                                                                                ",
"                                                                                                                                ",
"                                                                                                                                ",
"                                                                                                                                ",
"                                                                                                                                "
};
