/* XPM */
static char *d1fbd44ddcae42f4df41ffe52c69f916Udf9v0b9qtukryui[] = {
/* columns rows colors chars-per-pixel */
"64 64 119 2 ",
"   c None",
".  c black",
"X  c #161200",
"o  c #191500",
"O  c #1E1900",
"+  c #1D1A0B",
"@  c #1D1D1D",
"#  c #2A2300",
"$  c #393314",
"%  c #383526",
"&  c #383736",
"*  c #383836",
"=  c #947C02",
"-  c #987F00",
";  c #9E8400",
":  c #A08500",
">  c #A58A01",
",  c #AA8E02",
"<  c #A48B0B",
"1  c #A98E0A",
"2  c #AE9201",
"3  c #AF940B",
"4  c #B09300",
"5  c #BB9C02",
"6  c #AE9515",
"7  c #BFA003",
"8  c #C09F00",
"9  c #C1A103",
"0  c #C9A700",
"q  c #CEAB00",
"w  c #D2AE00",
"e  c #D5B100",
"r  c #DAB500",
"t  c #DFB900",
"y  c #D3B10A",
"u  c #DBB70B",
"i  c #DDBA0A",
"p  c #DEBB14",
"a  c #E0BA00",
"s  c #E7C100",
"d  c #EDC500",
"f  c #EFC800",
"g  c #F2CA00",
"h  c #F2CC0A",
"j  c #FDD400",
"k  c #FED60A",
"l  c #FCD615",
"z  c #FED815",
"x  c #C5B14C",
"c  c #DFC64B",
"v  c #DDC655",
"b  c #E1C74B",
"n  c #E4CA4B",
"m  c #EDD24B",
"M  c #F2D54A",
"N  c #F7DB4C",
"B  c #FADD4B",
"V  c #E2CB58",
"C  c #EFD554",
"Z  c #F1D655",
"A  c #F7DB55",
"S  c #FBDE55",
"D  c #FADF5D",
"F  c #FADF5C",
"G  c #FADF5C",
"H  c #FFE14B",
"J  c #FFE14B",
"K  c #FCE055",
"L  c #FDE155",
"P  c #FCE057",
"I  c #FDE057",
"U  c #FCE056",
"Y  c #FCE15F",
"T  c #FFE45F",
"R  c #FCE160",
"E  c #FCE161",
"W  c #FDE361",
"Q  c #FDE263",
"!  c #FFE461",
"~  c #FCE362",
"^  c #F7E06F",
"/  c #F7E06F",
"(  c #FBE36F",
")  c #FBE46F",
"_  c #FBE46F",
"`  c #FBE370",
"'  c #FBE471",
"]  c #FCE471",
"[  c #FCE473",
"{  c #FCE573",
"}  c #FCE572",
"|  c #F7E37F",
" . c #F7E37F",
".. c #C3C3C4",
"X. c #C3C4C5",
"o. c #C3C4C6",
"O. c #C4C4C5",
"+. c #C3C3C5",
"@. c #DFDCCF",
"#. c #DFDCCF",
"$. c #DBDBDD",
"%. c #DBDCDD",
"&. c #DDDDDE",
"*. c #DCDCDD",
"=. c #E1DECF",
"-. c #E0DDCF",
";. c #E1DED0",
":. c #E0DED1",
">. c #E1DED1",
",. c #E1DED2",
"<. c #E1DED1",
"1. c #FCF6D8",
"2. c #FDF7DA",
"3. c #FCF6D9",
"4. c #FBF8E9",
"5. c #FCF8E9",
"6. c #FCF9EA",
"7. c #FDFAEA",
"8. c #FCF9E9",
/* pixels */
"                                                                                                                                ",
"                                                                                                                                ",
"                                                                                                                                ",
"                                                                                                                                ",
"                                                                                                                                ",
"                                                                                                                                ",
"                                                                                                                                ",
"                                                                                                                                ",
"                                                                                                                                ",
"                                                                                                                                ",
"                                                . . . . . . . . . . . . . .                                                     ",
"                                                + + O O O O o o o o o o X X                                                     ",
"                                        . . . + x c i t a r 8 5 5 5 5 5 , = X . . .                                             ",
"                                        + + + $ n H k j j j a r r r e e 9 2 # X X X                                             ",
"                                    . + x v v b l k j j j j j j j g r e w q , > > = X .                                         ",
"                                    @ % V ! W L k j g g g g g g g d w q e w 9 9 7 , # X                                         ",
"                                . @ o.=.^ Y W L k g 2 > > > > > > > : > q e w w 7 5 , = X .                                     ",
"                                @ * >.2.` F Z m h s , ; ; ; ; ; ; ; ; > 0 q q q 9 7 7 , # X                                     ",
"                            . @ o.>.| ( W Z 6 < > , 0 q q q q q q q q 0 > ; ; > q w 7 5 , = X .                                 ",
"                            @ & >.2.( F Z n 1 ; ; > y u u u u u u u e q > ; ; > 0 q 9 7 7 , # X                                 ",
"                        . @ ..>.| ( W Z 6 1 0 q q y M A A A A A A M u e q q q 0 > > q w 7 5 , = X .                             ",
"                        . @ &.5.' F Z n 1 > y u u p m Z C C C C Z m y q r r e q > > 0 q 9 7 9 , X .                             ",
"                        . @ $.5.[ Z 6 1 0 y M A A m 6 < < < < < < < : , f g r e q 0 > > q w 9 > X .                             ",
"                        @ * @.2.[ C < ; q u A W L M < - - ; > > > > ; > s g t r e q ; ; q w 9 , # X                             ",
"                    . @ O.>.| ) W Z < ; q u A L z h > - - > s g g s > ; > 2 d g r q ; ; q w 9 5 , = X .                         ",
"                    . @ &.5.' F Z n 1 > y p N B k g > - - > g j j g > - - > g j r q > > 0 q 9 7 9 > X .                         ",
"                    . @ %.5.[ Z 6 1 0 y M N z k j g > - - > g j j g > - - > g j r e q 0 > > q w 9 > X .                         ",
"                    . @ %.5.[ C < ; q u A L k j j g > - - > g j j g > - - > g j t r e q ; ; q w 9 > X .                         ",
"                    . @ %.5.[ Z < ; q u A S k j j g > - - > g j j g > - - > g j j g r q ; ; q w 9 > X .                         ",
"                    . @ %.5.[ Z < ; q u A S k j j g > - - > s g g s > ; > 4 g j j j r q ; ; q w 9 > X .                         ",
"                    . @ %.5.[ Z < ; q u A S k j j g > - - ; > > > > ; > s g j j j j r q ; ; q w 9 > X .                         ",
"                    . @ %.5.[ C < ; q u A S k j j g > - - ; > > > > > 2 g j j j j j r q ; ; q w 9 > X .                         ",
"                    . @ $.4.[ C < ; q u A L k j j g > - - > s g g g g g j j j j j j r q ; ; q w 9 > X .                         ",
"                    . @ $.4.[ C < ; q u A L k j j g > - - > g j j j j j j j j j j g r q ; ; q w 9 > X .                         ",
"                    . @ $.4.[ C < ; q u A L k j j g > - - > g j j j j j j j j j t r e q ; ; q w 9 > X .                         ",
"                    . @ $.4.[ Z 6 1 0 y M N z k j g > - - > g j j j j j j j j j r e q 0 > > q w 9 > X .                         ",
"                    . @ &.5.' F Z n 1 > y p N B k g > - - > g j j j j j j j j j r q > > 0 q 9 5 7 > X .                         ",
"                    . @ ..>.| ) W Z < ; q u A L z h > - - > g j j j j j j j j g r q ; ; q w 7 5 , = X .                         ",
"                        @ * @.1.[ C < ; q u A W L m < - - > g j j j j j j j t r e q ; ; q w 9 , # X                             ",
"                        . @ $.4.' Z 6 1 0 y M A A m 6 < < 3 h k k k j j j g r e q 0 > > q w 9 > X .                             ",
"                        . @ &.5.' F Z n 1 > y u u p m Z C Z A L L B i r r r e q > > 0 q 9 5 7 > X .                             ",
"                        . @ ..>.| ) W Z 6 1 0 q q y M A A A A A A M u e q q q 0 > > q w 5 5 , = X .                             ",
"                            @ * >.2.) F Z n 1 ; ; > y u u u u u u u e q > ; ; > 0 q 9 5 5 , # X                                 ",
"                            . @ O.>.| ) W Z 3 > > , 0 q q q q q q q q 0 > ; ; > w w 7 5 , = X .                                 ",
"                                @ * >.2.' S h g g s , ; ; ; ; ; ; ; ; > 0 q q q e w 9 , # X                                     ",
"                                . @ ..=.^ L z k j g 2 > > > > > > > : > q e w w w q , = X .                                     ",
"                                    @ % V T L B k j g g g g g g g d w q e w 9 9 9 , # X                                         ",
"                                    . + x v v n l k j j j j j j j g r e w q , > > = X .                                         ",
"                                        + + + $ n H k j j j a r r r e e 9 , # X X X                                             ",
"                                        . . . + x c i t t r 5 5 5 5 5 5 , = X . . .                                             ",
"                                                + + O O O O o o o o o o X X                                                     ",
"                                                . . . . . . . . . . . . . .                                                     ",
"                                                                                                                                ",
"                                                                                                                                ",
"                                                                                                                                ",
"                                                                                                                                ",
"                                                                                                                                ",
"                                                                                                                                ",
"                                                                                                                                ",
"                                                                                                                                ",
"                                                                                                                                ",
"                                                                                                                                ",
"                                                                                                                                ",
"                                                                                                                                "
};
