/* XPM */
static char *_d699ec4549a4f63d1af29b8bbb0ac5a37w6YaOuG8zbi5gd[] = {
/* columns rows colors chars-per-pixel */
"64 64 224 2 ",
"   c None",
".  c black",
"X  c #19110B",
"o  c #19120D",
"O  c #1B130E",
"+  c #322218",
"@  c #332319",
"#  c #32231A",
"$  c #33241A",
"%  c #71350B",
"&  c #743E17",
"*  c #733E18",
"=  c #413D36",
"-  c #423E37",
";  c #7E4218",
":  c #7F4218",
">  c #7F4219",
",  c #48443D",
"<  c #524F48",
"1  c #534F48",
"2  c #534F49",
"3  c #545049",
"4  c #565149",
"5  c #51504C",
"6  c #52504C",
"7  c #53504C",
"8  c #52514D",
"9  c #53514D",
"0  c #54514D",
"q  c #57534C",
"w  c #54524E",
"e  c #57544C",
"r  c #58544C",
"t  c #58544D",
"y  c #565450",
"u  c #575550",
"i  c #585651",
"p  c #595652",
"a  c #595752",
"s  c #595753",
"d  c #5A5853",
"f  c #5B5953",
"g  c #5C5850",
"h  c #5D5850",
"j  c #5B5954",
"k  c #5C5A54",
"l  c #5D5A54",
"z  c #5C5A55",
"x  c #5D5B55",
"c  c #5E5C56",
"v  c #5F5D57",
"b  c #61564D",
"n  c #63574C",
"m  c #62574E",
"M  c #64584C",
"N  c #65584C",
"B  c #64584E",
"V  c #665B51",
"C  c #675C50",
"Z  c #675C52",
"A  c #615E57",
"S  c #615F59",
"D  c #615F5A",
"F  c #61605A",
"G  c #62605A",
"H  c #63615B",
"J  c #61615D",
"K  c #63625C",
"L  c #62615E",
"P  c #63625F",
"I  c #65625C",
"U  c #65635C",
"Y  c #66635C",
"T  c #66635D",
"R  c #70675D",
"E  c #74695E",
"W  c #656561",
"Q  c #686863",
"!  c #6A6965",
"~  c #6C6B66",
"^  c #6F6F69",
"/  c #716B61",
"(  c #736D62",
")  c #726D63",
"_  c #736D63",
"`  c #746D63",
"'  c #746E63",
"]  c #746E64",
"[  c #756F64",
"{  c #7A6E60",
"}  c #767066",
"|  c #777166",
" . c #767167",
".. c #777167",
"X. c #777267",
"o. c #787166",
"O. c #787267",
"+. c #797267",
"@. c #777268",
"#. c #72716C",
"$. c #787268",
"%. c #787368",
"&. c #797369",
"*. c #7B7469",
"=. c #7A746A",
"-. c #7B756A",
";. c #7B756B",
":. c #7B766B",
">. c #7C766A",
",. c #7D766A",
"<. c #7D776A",
"1. c #7C766B",
"2. c #7C7970",
"3. c #7E7A72",
"4. c #7F7B72",
"5. c #804617",
"6. c #814617",
"7. c #804219",
"8. c #80441A",
"9. c #82451B",
"0. c #824818",
"q. c #834818",
"w. c #867360",
"e. c #807664",
"r. c #837769",
"t. c #867869",
"y. c #86796A",
"u. c #87796A",
"i. c #877D69",
"p. c #877D6A",
"a. c #887969",
"s. c #887A6A",
"d. c #887A6B",
"f. c #897E6A",
"g. c #887B6C",
"h. c #897B6C",
"j. c #897B6D",
"k. c #827E75",
"l. c #8C8371",
"z. c #858178",
"x. c #868278",
"c. c #928976",
"v. c #C38259",
"b. c #C8875D",
"n. c #CA875D",
"m. c #CD8A5F",
"M. c #D3895B",
"N. c #D88E5E",
"B. c #DDAF5C",
"V. c #DFB15D",
"C. c #C98D66",
"Z. c #CB8F68",
"A. c #CD9169",
"S. c #CE9068",
"D. c #CD916A",
"F. c #CE916A",
"G. c #CF926A",
"H. c #D39165",
"J. c #D39166",
"K. c #D49165",
"L. c #D59266",
"P. c #D8956A",
"I. c #D9956A",
"U. c #D9966A",
"Y. c #D9966B",
"T. c #DB976B",
"R. c #CB9672",
"E. c #D99C74",
"W. c #DA9D75",
"Q. c #DB9E75",
"!. c #DA9E76",
"~. c #E3996A",
"^. c #E69A6A",
"/. c #E69B6B",
"(. c #D1AE67",
"). c #D2AF68",
"_. c #DFB768",
"`. c #DFB869",
"'. c #EBBE66",
"]. c #E0B96A",
"[. c #E3A075",
"{. c #E5A175",
"}. c #E6A175",
"|. c #E6A275",
" X c #E7A275",
".X c #E6A276",
"XX c #E6A377",
"oX c #E7A377",
"OX c #E8A274",
"+X c #E8A376",
"@X c #E8A377",
"#X c #E8A477",
"$X c #E8A478",
"%X c #E8C274",
"&X c #E8C374",
"*X c #EAC477",
"=X c #ECC678",
"-X c #CDCEC2",
";X c #CECFC2",
":X c #C4CCCA",
">X c #C5CCCB",
",X c #C5CDCB",
"<X c #C5CDCC",
"1X c #C6CDCC",
"2X c #C6CECC",
"3X c #C6CECD",
"4X c #C8D0CE",
"5X c #C9D0CE",
"6X c #C8D0CF",
"7X c #CAD1CF",
"8X c #C9D1D0",
"9X c #DADCD1",
"0X c #D3DBDA",
"qX c #D4DDDC",
"wX c #D4DEDD",
"eX c #D7DFDE",
"rX c #D7E0DF",
"tX c #D8E0DF",
"yX c #E5E5D9",
"uX c #D7E0E0",
"iX c #E3E9E8",
"pX c #E4EAE9",
"aX c #E5EAE9",
"sX c #E4EAEA",
/* pixels */
"                                                                                                                                ",
"                                                                                                                                ",
"                                                                                                                                ",
"                                                                                                                                ",
"                                                                                                                                ",
"                                                                                                                                ",
"                                                                                                                                ",
"                                                                                                                                ",
"                                                                                                                                ",
"                                                                                                                                ",
"                                                        1.1.1.1.-.1.1.1.1.1.                                                    ",
"                                                        1.1.1.1.1.-.........                                                    ",
"                                                    1.1.1.1.-.1.1.O.g r r r 4 2                                                 ",
"                                                    1.1.1.1.1.-.O.) q 2 2 2 2 4                                                 ",
"                                                1.1.-.1.1.1.1.O.g q 4 2 3 3 4 4 4 4                                             ",
"                                                1.1.1.-.......) q 2 2 3 3 3 4 4 4 4                                             ",
"                                            1.1.1.1.1...g q e q 2 2 2 2 2 2 2 2 2 4 4 4                                         ",
"                                            1.1.1.1.1.O.C M M M M M M M M M M m 4 2 4 4                                         ",
"                                            1.1.1.1.-.y.C.K.H.H.K.K.H.H.H.H.K.H.                                                ",
"                                            1.1.1.1.-.s.U././.~.m.m.~././.~.m.b.                                                ",
"                                            1.1.1.1.-.s.U./.OXS.@ @ S.OXOXS.@ X                                                 ",
"                                            1.1.1.1.-.s.U./.OXZ.o o Z.$X$XZ.o .                                                 ",
"                                            1.1.1.1.-.s.U./.OXZ.o o Z.#X#XZ.o .                                                 ",
"                                            1.1.1.1.-.s.U./.OXS.@ @ S.#X#XS.$ o                                                 ",
"                                                1.1.-.s.U./.|.[.S.S.[.|.|.[.S.Z.                                                ",
"                                                1.1.-.s.U./.|.|.#X#X|.|.|.|.$X|.                                                ",
"                                                    -.s.U./.|.|.|.|.|.|.|.|.OXW.E G G G                                         ",
"                                                    -.y.S.U.W.W.W.W.W.W.W.W.W.R.R D G G                                         ",
"                                            1.1.1.1.-.1.y.s.g.g.g.g.g.g.g.g.g.r.A j j k G G                                     ",
"                                            1.1.1.1.1.-.-.-.-.-.-.-.-.-.-.-.-.@.k s d j D G                                     ",
"                                        1.1.1.1.1.1.1.1.1.1.1.1.1.1.1.1.1.1.1...s q d j j k G G                                 ",
"                                        1.1.1.1.1.1.1.1.1.1.1.1.1.1.1.1.1.1.1...y 5 s d d j G G                                 ",
"                                        1.1.1.1.1.1.1.1.1.1.1.1.1.1.1.1.1.1.1...y 5 5 q d k G G                                 ",
"                                        1.1.1.1.1.1.1.1.1.1.1.1.1.1.1.1.1.1.1.O.C m q 5 s k G G                                 ",
"                                        1.1.1.1.    1.1.1.1.1.1.1.1.1.1.1.1.-.y.b.v.m 5 s k G G                                 ",
"                                        1.1.1.1.    1.1.1.1.1.1.1.1.1.1.1.1.-.s.N.M.M 5 s k G G                                 ",
"                                        1.1.1.1.    -.-.-.1.1.1.1.1.1.1.1.1.-.s.N.M.M 5 s k G G                                 ",
"                                        1.1.1.1.    f.p.1.-.1.1.1.1.1.1.1.1.-.y.b.v.m 5 s k G G                                 ",
"                                        1.1.1.1.    _.).p.-.-.-.-.-.-.-.-.-.-.O.V m 5 5 s d D G                                 ",
"                                        1.1.1.-.    '.].c.z.z.z.z.z.z.z.z.z.z.k.W K K K Q Q K G                                 ",
"                                        -.-.-.{ * q.V.&X-X8X6X6X6X6X6X6X6X6X6X6X<X>X>X>X<X>X                                    ",
"                                        s.g.g.w.& 6.B.*X9XuXrXrXrXrXrXrXrXrXrXrXtXtXtXtXtXtX                                    ",
"                                    % 9.S.W.W.S.; 6.B.=XyXpXpXpXpXpXpXpXpXpXpXpXpXpXpXpXpXiXeXeX                                ",
"                                    % 9.U.#X#XU.7.6.B.=XyXpXpXpXpXpXpXpXpXpXpXpXpXpXpXpXpXiXeXeX                                ",
"                                        |.|.|.U.; 6.B.*X9XuXrXrXrXrXrXrXrXrXrXrXtXtXtXrXeXeX                                    ",
"                                        |.|.|.U.; q.V.&X-X6X6X6X6X6X6X6X6X6X6X6X<X<X<X6X0XeX                                    ",
"                                                    '.`.l.4.4.4.4.4.4.4.4.4.4.4.~ ! ^ #.                                        ",
"                                                    _.(.e.) ) ) ) ) ) ) ' ' [ / k d D G                                         ",
"                                                    f.p.1.-.            -.-.-...v j G G                                         ",
"                                                    -.-.-.1.            1.1.1.$.v k G G                                         ",
"                                                    1.1.1.1.            1.1.1.$.T D                                             ",
"                                                    1.1.1.1.            1.1.1.$.T G                                             ",
"                                                    1.1.1.1.            1.1.1.$.T G                                             ",
"                                                    1.1.1.1.            1.1.1.$.T G                                             ",
"                                                    1.1.1.1.            1.1.1.1.                                                ",
"                                                    [ [ [ [             [ [ [ [                                                 ",
"                                                    , , , ,             , , , ,                                                 ",
"                                                    = = = =             = = = =                                                 ",
"                                                    = = = =             = = = =                                                 ",
"                                                    = = = =             = = = =                                                 ",
"                                                    = = = =             = = = =                                                 ",
"                                                    = = = =             = = = =                                                 ",
"                                                    = = = = = =         = = = = = =                                             ",
"                                                    = = = = = =         = = = = = =                                             "
};
