/* XPM */
static char *d24a4952c50a4260b7d596431880fed0FXvgcvMUplcdrTl3[] = {
/* columns rows colors chars-per-pixel */
"64 64 177 2 ",
"   c #0E3404",
".  c #0E3B03",
"X  c #143405",
"o  c #133C05",
"O  c #1B3D06",
"+  c #163409",
"@  c #193608",
"#  c #153B09",
"$  c #1B3D09",
"%  c #1F3F10",
"&  c #233709",
"*  c #223E0B",
"=  c #0F4304",
"-  c #154405",
";  c #1A4506",
":  c #154B05",
">  c #1B4C06",
",  c #164408",
"<  c #1C4509",
"1  c #164D09",
"2  c #1C4C0A",
"3  c #155304",
"4  c #1B5406",
"5  c #165B04",
"6  c #1B5B06",
"7  c #165208",
"8  c #1D540A",
"9  c #1D5B0A",
"0  c #1F4411",
"q  c #1F4C10",
"w  c #1E5A10",
"e  c #224407",
"r  c #214C07",
"t  c #23450B",
"y  c #28450B",
"u  c #224C0B",
"i  c #2A4D0D",
"p  c #30430D",
"a  c #215407",
"s  c #215B07",
"d  c #23540C",
"f  c #2A540D",
"g  c #235C0C",
"h  c #2A5C0D",
"j  c #32540F",
"k  c #315C0E",
"l  c #264711",
"z  c #244D12",
"x  c #2B4C10",
"c  c #324E12",
"v  c #245511",
"b  c #2B5512",
"n  c #255B11",
"m  c #2B5C12",
"M  c #2F5C1B",
"N  c #315513",
"B  c #3A5615",
"V  c #325D12",
"C  c #385D17",
"Z  c #305F18",
"A  c #1D6306",
"S  c #1D6A06",
"D  c #1E6209",
"F  c #1E6B09",
"G  c #216307",
"H  c #286107",
"J  c #216907",
"K  c #24630C",
"L  c #2A630E",
"P  c #276E0E",
"I  c #246D0E",
"U  c #256A0C",
"Y  c #28680F",
"T  c #286B0E",
"R  c #286A0F",
"E  c #286B0F",
"W  c #2B690F",
"Q  c #2C690E",
"!  c #2A6E0F",
"~  c #2A6B0D",
"^  c #30630F",
"/  c #32640F",
"(  c #32680F",
")  c #227108",
"_  c #24700B",
"`  c #25710B",
"'  c #23750A",
"]  c #27770A",
"[  c #26720C",
"{  c #28710B",
"}  c #287708",
"|  c #2C710F",
" . c #2B720E",
".. c #30750F",
"X. c #31720F",
"o. c #266210",
"O. c #276211",
"+. c #246012",
"@. c #276111",
"#. c #276410",
"$. c #266611",
"%. c #266713",
"&. c #246214",
"*. c #266311",
"=. c #296411",
"-. c #286711",
";. c #286413",
":. c #296712",
">. c #296713",
",. c #2D6510",
"<. c #2E6712",
"1. c #2D6711",
"2. c #2B6514",
"3. c #2B6312",
"4. c #276A12",
"5. c #2B6810",
"6. c #2B6811",
"7. c #296B10",
"8. c #296B13",
"9. c #2E6911",
"0. c #2F6813",
"q. c #286C10",
"w. c #2A6C10",
"e. c #2B6C10",
"r. c #2A6C11",
"t. c #2F6C13",
"y. c #2C6F13",
"u. c #2E6F14",
"i. c #2C6B12",
"p. c #2C6319",
"a. c #2F6A19",
"s. c #306513",
"d. c #336716",
"f. c #326413",
"g. c #396415",
"h. c #326810",
"j. c #306B12",
"k. c #326C13",
"l. c #3A6D16",
"z. c #346419",
"x. c #3E6418",
"c. c #346D1A",
"v. c #3B6C19",
"b. c #297010",
"n. c #2B7111",
"m. c #2A7113",
"M. c #2C7013",
"N. c #2E7112",
"B. c #2C7313",
"V. c #297710",
"C. c #297412",
"Z. c #2C7410",
"A. c #2D7212",
"S. c #2E7811",
"D. c #2F7A10",
"F. c #2F7913",
"G. c #307110",
"H. c #307412",
"J. c #307014",
"K. c #317315",
"L. c #307016",
"P. c #327217",
"I. c #317415",
"U. c #327313",
"Y. c #387116",
"T. c #337813",
"R. c #337B15",
"E. c #357E16",
"W. c #347B14",
"Q. c #3A7A15",
"!. c #34751A",
"~. c #3A7219",
"^. c #3B7319",
"/. c #377819",
"(. c #3A791A",
"). c #426C19",
"_. c #45771D",
/* pixels */
"b.9 F A S F _ J 5 4 =.d 9 &.8.K 4 D 8 u 9 g R.d 6 d 4 9 9 K G 4 6 Y K U.C.I 1 1 D K D g d 9 g K 4 , 4 G 8 7 9 Y g I 9 9 U =.g K ",
"R b.K 9 K I _ S 3 : 3 d 4 9 4 4 9 U 3 > d > R <.h ^ h 8 g 2.K 9 K g K b.K 4 8 n Y y.8 8.N.K K g s > 4 1 4 9 ;.K R D : K > g g K ",
"Y I I C.q.J ' S 5 5 3 8 7 g Y 4 9 F ] K d.j.*.6...8.L s | g K t.g *.9 9 K 9 g U.v /.~.U.K K g L d K K > : 6 9 K s g 4 s d ! 8.y.",
"G J { D.3 : S S 9 4 9 g U K Y K q.P.E.N.N.Z.6 K P I.s.d H.U Y j.g =.Y *.g K D.N.Y =.<.U.K : 9 K 8 9 D.*.8 4 > D S 8.g <.j.g s K ",
"> 6 R D.3 8 P J A D g =.g g K D G K 2 K } ) S q.> > t h Y 9 G.K 9 G K g m L N.*.9 9 U.T.R K , d N.g ! g g K d *.d i u Q Y Y m 8 ",
"b d D P A 3 6 K : K 8 <.> u h u 2 K 2 8 5 9 S J K @.d g  .D K g > > 8 v 2.Y K 2 g =.P.G.K K h Q k.9 9 ! k.K 8.k.c.g 4 4 K ! K K ",
"<.N.I 5 5 : 3 o + m s U J g g 2 g G ! I G K 4 6 J K K d f ! 9 9 g d g g k.K > h m d n g t.g K K Z.g p.d <.6.K V g K q.8 d H.5 Y ",
"s G F 3 3 9 A 3 7 6 9 g g 4.K n i f 6.A 9 U 6 s ! K g V d h f =.g h g n 6.3.3.k.8.g g 8.K I K K ! > 2 g <.@.g f.n K 9 g g g D A ",
"h d Q K 9 K 9 9 d 9 9 h s 9 9 8 e f H.I K ! Z.! K K s ~ h g.V <.s k.K d 3.h f.R g <.Y q.K Y K 4 4 8 u =.@.3.b @.*.v # m d 9 ) [ ",
"K h c.v g 9 A I D [ K g s K > 4 7 K G K L J 9 K L g g G L L L d d Q Q <.f.f.m g D Y K g *.q.4.8 X d 7 Y N.b.6.P.U.Y n 3.d > S S ",
"9 h n n @.9 R K 9 q.2.+.> s K P 9 K G 5 9 ; 2 2 8.! k.3.g Y <.h m h k.=.g x.k.Q 8 g K K g 9 g 2 v g 4 g g 9 !.c.g q.4.2 6 7  .D ",
"Y Y K g q.g L g g g 8.b.@.8 s d u d K : 9 s 4 g K K k.G.d H Q j.l.^ g.d.h g.k.6.d 8 y.t.8.s > Y K 7 K g K 4 2.>.9 Y Y 6 , , k.Y ",
"U.n K k.Y N.4.b.n K K R Y K > # s 6 G 3 2 K s L ~ J ~ ~ f L g.b > f g.^ m l.G.s 2 d Y.L 3.g 9 N.g 9 g g 8 8 K 8.Z.K N.9 d h t.m ",
"g @.4.n @.K K 4.*. .U d d j.g - g K 6 5 Y d g Y U U P G d j.l.<.( / ).m n v.K =.L g d d g g h c.f u g R 8 8 n 9 =.8 K U K d g d ",
"> G 4.q.9 d K n g K D h 3.j. .4 L Z.A 5 K g Y Q L g g G <.<.Y 6.G.( V h L h h f h f g @.@.s.x.l.h d d K 6 *.a.g 2 8 9 >.n K 8 g ",
"} F 9 *.8.K K v g 2 n d K Y 9 U s | ! 7 3.g q.K 4 s N.L a K Y g ~ h d @.L V g u d d.@.@.k.g._.l.d n 2 K Y M.m k.~  .g n t Q > < ",
"| A 6 g 2 ; n a.9 g =.g K K : K 8.t.Z.J K R Y h L 7 g m h f h K R g L n k.N d.V ( <.Q l.).v.~.h 8 L s > K t.=.8.R  .Y 6 , d L Q ",
"N.g $.K 9 2 4.b.K 9 L g K =.s f.j.4 4 5 3 U L m h K  .G.( d h R g K L v <.g k.k.N s.h L s.h 2.2.8 d 2 u h L g g R K n > > L L K ",
"Z.b.G I K 4 : 9 A 9 g g 7 g Y m s 8 K t.K U 4 Y h ~ U A s g K 6.s G d g d u h d.d.Q.t.Q ( 6.8.K 0.8 2 u K q.g n m 8 K ~ L d 6.4 ",
"2 4 8 Y 6 A I R R J 9 Y : > I b.K K 8 g U 7 g K 6 d L A 4 g G g 9 4 8 g f <.g g k.W.q.g ( h 6 U.N.5 K K 9 0.3.K v t g g d > G 8 ",
"- K g g [ U Y Y s : 9 I 4 : g Y g 6.k.g 8 d R g K : 4 d 6.g K 9 K 9 > g g K @.k.V 6.K K ~ ~ 5 4 3 D ; g n <.g L u n 8 ; d d G g ",
"4  .I 9 b.K R g > ; > t.8 - < f ~ d L g u f h s 9 > g Y 9 8 g : d g d d 8 d f k.g.d u Y K K g > g  .8 =.U.8.h h u 2.g h h u ; L ",
"4 g G F Y Y K s K t.8 @.Q K 4 L L <.d g h a > a s g k.~ 8 m 9 7 L f N n < f.3.u f d.N.K Y 6 K 6.2 h g 8 K ~ d m s 8 7 d k.g ; s ",
"D G U 3 g f.m *.N.G.> g L G 4 d.<.Q k.g L U 4 h ~ g h s K =.L 8 2 u u > O h g < d g g R K 4 K R K 8 , *.K G g =.9 > > 4 g Z.8 , ",
": 9 g 2.8 g =.N.D.F.! 7 d 7 9 g L f Q g J K 2 g h > ; > D 4 d d X , , : n g 8 < b Y q. .Y K 8.K : o 2 =.D.4 ;.K D 8 d 4 2 g 8 O ",
"w 4 g y.1 I [ Y K G P A <.L A L ( L N.d Y K K Q d 3.j.d > : g 2 t 2 9 2 G.2 2 ; 3.s.U 4 A g c.K Y g K D.K > g , K +.g K k.g 4 s ",
"2 > g G > g  .U K 4 6 ~ j.G.Y s y f L h K 8 : s ^ L K ^ u : 3 8 g d 2 u *.Y z.g.l.m Q Y K 2 8 N.H.8.9 R I ~ K g 8 s K G.Q.W.=.k.",
"> t f G { G =.I.9 : g J K  .> 6 d g L h g d 2 d g.s > d > 4 K K K , X 2 d n j.K Q @.X.h 9 9 9 Y 8 2.4 g =.6 g 4 g K n ~ L u g y.",
"; s K D L R 3 d K : > 4 6 g > A J g Y u L I =.8.K g K g g s h K g 2 o v 8 3.f K K g l.Q L g *./.d d.g g K g j.8 P K m g h g g 8 ",
"8 K L > d. .J G K A 6 6 A , # q.K 9 9 s I K @.~ g g d K 8.8 , 2 9 Y f < <.q.g K o $ d.^.k.g @.2.@.K ; ; 8 K 8 8 U s V f L f t 4 ",
"g 8 d g 0.8. .D > 2 4 3 g <.d K K Y K 8 K D g d s t.8 d k.2 9 L N.K 8 , K 8 d g t u n V s h 3.g n m u d K J 9 Y g < L g g n d g ",
"K  . .<.Q R 9 9 1 : G t.Y.6.@.s g g g *.; s d > d f.u d u s R k.3.2 < g n n h g.k.*.n < m g 2 t.< d h g ~ t.d s 4 ; , s L ^.d d ",
"(.N.U K 7 J D g K 4 P g L g @.d 8.8 g g ; u < g g g 2 <.K K y.k.> d g b y.M.v u 9 9 n 2.3.d , 0.n 9 Q U.9 g > 7 u ~ Y g G.<.s.L ",
"K 8 D A = 3 9 |  .9 A K 4 L d m *.D 9 g g d < L K Y n g 6.h Y U.t < d # g *.2.d g 2 m a.2.2 2.n 8 K R K 9 K 9 9 R K g s g 4 s R ",
"J 5 5 : o : 9  .U 3 9 R g 2 g Y K G @.K A u 2 d f u f.g d m g L g @.M @.d g @.8 @.t @.d M n =.@.8 d.d > 9 9 d g R Y d d s s !  .",
"K F K 3 4 g 5 3 4 5 o h 3.6.2 4 d k.h d g 7 > u Q N d h d.j.d d d @.2 8 4 *.t.K s d g > $ 8 4 6.K h d s ; 2 8 9 9 L m h ^ L k.K ",
"3 g R P K u 6 4 9 : : 8.> g ; d s.m 2 v g > > L l.m 4 3.d g f g K g 8 K 9 2 p.8.b.K 8 t m *.2 d 8 y L g > < g L Q 3.2 s.j.@.m ; ",
"9 2 2 2.Y G S 6 J - 2 K : Y g d i e s 8 5 4 9 l.f 2 K k.g f m u K 9 s W.8 8 p.c.p.g o * v c.2.<.t < g d g 2 g 3.s.l.b n g K X.6.",
"K 6 4 I J N.G A ] g d d u H.Y e f f g g 4 < K d d L g m f f j f d 9 , > 2 , , v u d t < , c.P.f.f.d g k.d.d d b V f V 8.1 g ~ c.",
"@.g Y D 9 8.> : 9 K 6 9 n f K ; d L K d s L 2.d s g u i i j V i f 8 4 2 > , 9 *.9 g b n n n 6.<.2.=.8 f.2.n g L f N B f.g R L K ",
"j.s 4 5 : 4 2 2 : 9 3 > X O f 6 m m d n > 9 g g u d 2 3.f V f V Y g K g *.7 8 8 9 g 8 n 2.z d.y.d R d d b v > s d.z.u d g Y 6.g ",
"H.8 g 4 4 D 9 Y r K 8 2.: : d 2 t b m n v n K g f 6.d g d h f f.d.8.d u 6.g =.$ ; 2.n d m 0 n %.v 8 8 K d 4 o u n m g h d K g 4 ",
"6.Y D K !  .5 g L K g D 5 d u 2 v b d g 2.2 g 8 g K g n g ( L d d d 2.m d d 8 $ g d.n d d 2 8 K n K L f g K g g 2 f f r u f a : ",
"U.U.[ 9 d.t.4 8.L d <.6 6 K g 2 m 2 2 2 g u 9 K g d 9 8 u t.V i > 9 h Y > : 7 d 6.g h b n b b % > g d.d 4 g ~ s 2 L L r r k h d ",
"g d Y 9  .q.9 : d K 9 h f ; 7 , u 2.g , 2 g u s g 6.*.K 2 d m Q d 8 s.R.7 4 6 L n g m $ 2 8 =.g K t.P.6.d d g 9 2 N t > 4 f h f ",
"u , n 9 D G 9 3 8 g =.9 9 , m n 8 g 4 d n 3.y f 8 u Y k.h i , u m d 6.K 4 8 g h t i g t @ n @.8 2 2 k.2 d d 2 2 u V u Q g f h t ",
"A 6 d 3 . 8 9 A s g R 9 0.K 1 4 2 4 , < g h c f.g > K V V h > ~ g d f.b g ! K Y K < 8 , @ d 8 , 7 6 8 K 9 g 8 , ; g L f d h x.c ",
"3 D D K 2 d g > d g | g d U.4.n v @.m h d 3.y f g < d d K 8 d  .G 8 i h ! U : g 9 > j.j.2 , 8 d !.8 > <.2.~.d n *.s.V h g h v.C ",
": 4 9 8.=.g t.g g 6.R h s d 9 9 v @.d , 2 < d g Q > > 4 g 2 8 K 6 6 9 K g n 8 6.b.n 2.d 9 1 , 2.n d Y 2 8 d 8 2 L k f L d d k.g.",
"g d *.K - 8 =.<.K g 4 L G > 1 *.Y g 2   2 f s.g @.9 8 g K > , g , 8 d ; 2 *.d d 2.8 9 > 8 v < v , g K X d g v d V m d g h k.k.u ",
"Y 9 4 K > K K 3.K 9 6 u g K 2 *.K : u d 3.f.u 8 g @.d @.> d 2 2 , Y ; > P 8 v 9 8 8.K g g n n p.b h $ X h d h Q n =.g f d b d 4 ",
"K 8 S D g 0.*.d g K K : K K ; 9 8 2 L t.<.8 @.g 8 8 ; h D @.z.m 8 d A A J > , d Y K 1 *.4 u v , d c.< o g d 3.2 g k.V d f b d > ",
"9 4 F 9 S 7 8 8 n 8.K 8 K K d 2 : m g d 2.# 2 > , 9 ; f.K 2 m *.8 ; g K A 3 8 4 2 2 g 9 > s 2., n 8 g g K K h g 8 b i g y l 2 d ",
"9 D A D K : 8 g 9 K 2 t @.9 8.n g b x # v , d K G D > 2 9 - g d 2.g d g 9 6 J J D ,   1 K 9 @.4 8 s > K s.C i d 2 g d 6 ; d d 4 ",
"8 8 u g P.Y G L g Y d 8 g g Y 9 d.b i < 8 d G K A 4 < e 2 g 8 2 n s d z f > 7 K g 9 4 > 7 : g ; 2 K 4 4 i p y m d g 2 d g n v n ",
"8 8 > u 3.Z.4 t f u u 2 8 m g 1 2 m v 4 8 n g K u O y N f v , g 2 - 8 v v m p.@.b 8 K K 1 : D s > u 8 n t < s d s K 8 < o 4 , v ",
"F > > Y K S 9 d f h 6.8 > $ d 4 < f n , 8 2.d.8 , d g ; 8 3 t m 8 v n g d n , o d 3 G.8 > Q 9 | u f L b f < d u K Y g v d 4 : h ",
"g > < 2.g h <.f i j.L 9 K ; > 8 m f.*.n g 8 C i $ u @.> d 2 v.v 7 2 k.K 4 8 2 d Q 6 g 4 g i 2 g t m u g K d h d 9 m f f b d 6 N.",
"d > 8 g n h <.d d 2 u d > f g 4 K 8 2 9 K b N l y t u e > : 2 8 o 8 K u d 9 : 4 8 ; s g L e > 2 v s g K 4 < d , ; a u g h g n n ",
"J 9 2 u f h @.a u g g g > f u 8 4 4 , : 5 2 b b i u s f r 3 : 9 2 > o t m 8 s K 1 # v v k.; q d d > G 6 6 u k u d u 2 2 g , > g ",
"9 g g 4 N @.K ~ s 9 9 : 9 8 ; 2 8 9 - ; > , 2 n m t * V d 8 8 n n ; ; h 9 g g K 4 > Z q L Y , d u g U : 5 , 4 n m g g d , m K 8 ",
"g 8.9 G d d 6.G 6 9 7 - > 6 6 4 *.g K 2 @ 8 > 2 t 2 u h s g K : ,   < k.K R g g s g g ; d 2.v z d s g : A G < & z.K Y d O <.g u ",
"9 s g h 3.u g 8 9 4 3 : > s 8 6 K : G K $ u : : d u 2 d : : g > ; u 2 8 9 3.R K 4 Y ; 8 8 2.n 2 2 2 > s g 6 > > i L f y < u ; > ",
"A d m g 8 9 g e 4 D 3 - 8 K : 7 2 4 U g ; h > 2 d h 4 8 2 g  .9 - m 3.g 1 , G a : - . d 2 h 8 3 8 d u f g d d 6 7 > u O b x ; : "
};
