/* XPM */
static char *_164156a61c644b8d4afa1ff80a38a65awh8NWJD8ch43C55[] = {
/* columns rows colors chars-per-pixel */
"64 64 143 2 ",
"   c #32281F",
".  c #352B22",
"X  c #392E25",
"o  c #3A3027",
"O  c #3D332A",
"+  c #41362D",
"@  c #43382F",
"#  c #463B31",
"$  c #493E34",
"%  c #4C4136",
"&  c #4E4339",
"*  c #51463B",
"=  c #54493E",
"-  c #584B3F",
";  c #564B41",
":  c #5A4E43",
">  c #5C5146",
",  c #5E5348",
"<  c #605447",
"1  c #62554A",
"2  c #65594D",
"3  c #695C4E",
"4  c #675C51",
"5  c #6A5E52",
"6  c #6D6155",
"7  c #6E6458",
"8  c #726456",
"9  c #73665A",
"0  c #75695C",
"q  c #7A6B5D",
"w  c #776C60",
"e  c #7B6E61",
"r  c #7E7164",
"t  c #827365",
"y  c #877867",
"u  c #887867",
"i  c #847669",
"p  c #86796B",
"a  c #8A7B6D",
"s  c #907F6E",
"d  c #8D7E71",
"f  c #8F806E",
"g  c #91816E",
"h  c #8F8072",
"j  c #938474",
"k  c #988774",
"l  c #9A8976",
"z  c #968778",
"x  c #97887A",
"c  c #9B8B7B",
"v  c #A08F7D",
"b  c #A2917E",
"n  c #9F8E80",
"m  c #A08F80",
"M  c #A49382",
"N  c #A89784",
"B  c #AC9A85",
"V  c #A69689",
"C  c #A8978A",
"Z  c #AD9B8B",
"A  c #B19E89",
"S  c #AF9E91",
"D  c #B09F91",
"F  c #B5A28C",
"G  c #BAA68E",
"H  c #BCA88F",
"J  c #B7A592",
"K  c #B7A595",
"L  c #B4A393",
"P  c #B8A591",
"I  c #BBA790",
"U  c #B8A592",
"Y  c #BAA793",
"T  c #BAA794",
"R  c #B9A692",
"E  c #BBA893",
"W  c #BCA890",
"Q  c #BEAA91",
"!  c #BCA994",
"~  c #BCA995",
"^  c #BFAB94",
"/  c #BEAB97",
"(  c #BFAC95",
")  c #BFAC96",
"_  c #BDAA92",
"`  c #B7A698",
"'  c #B8A798",
"]  c #BCAA98",
"[  c #BEAB98",
"{  c #BFAD9F",
"}  c #BDAB9B",
"|  c #C0AC93",
" . c #C1AD94",
".. c #C0AC95",
"X. c #C0AD95",
"o. c #C2AE96",
"O. c #C3AF97",
"+. c #C1AD95",
"@. c #C0AD98",
"#. c #C0AD99",
"$. c #C1AE98",
"%. c #C2AF98",
"&. c #C1AE9A",
"*. c #C2AF9B",
"=. c #C2AE9A",
"-. c #C5B19A",
";. c #C5B19B",
":. c #C6B29A",
">. c #C5B19D",
",. c #C6B29C",
"<. c #C6B39E",
"1. c #C7B49E",
"2. c #C5B29C",
"3. c #C9B59F",
"4. c #C0AEA0",
"5. c #C3B1A3",
"6. c #C4B2A2",
"7. c #C6B3A2",
"8. c #C7B4A1",
"9. c #C5B3A2",
"0. c #C8B5A1",
"q. c #C9B6A0",
"w. c #C9B6A2",
"e. c #C8B6A7",
"r. c #C9B6A2",
"t. c #CCB8A3",
"y. c #CBB8A4",
"u. c #CCB9A5",
"i. c #CAB7A8",
"p. c #CCB9A9",
"a. c #CDBBAB",
"s. c #CFBCA8",
"d. c #CDBAAA",
"f. c #D0BDA9",
"g. c #D0BDAA",
"h. c #D0BDAD",
"j. c #D1BDAC",
"k. c #D3C0AE",
"l. c #D5C1B0",
"z. c #D5C2B2",
"x. c #D8C5B6",
"c. c #DAC7B8",
"v. c #DBC8B9",
/* pixels */
"9 i 0 < O & J Z $ = ; O . = 9 0 0 5 * X . $ : $ O j d O o @ O . $ 0 7 1 , 1 : & O . o $ = : ; * * + 8 t 7 O @ @ O # e q @ * 4 2 ",
"%.,.,.%.M 3 5 3 t e.6.M 2 L :.W I %.I j = j B j & 9 j < c A a X q 0.,.%.%.8.6.5.Z 4 & c I / / T } Z 9 : p V A Z Z c c c 9 j %.( ",
"F F H Q ../ m % c g...:.M a v j a j M F c > , : 4 e > * N B t X 3 B B B B A I :.t.s.j 1 c N B B A } 9 0 0.:...| ..0.s.z.h.j j F ",
"j c v N B A ..q n ( N B M & $ > & @ ; p j * O i s.g.K 5 ; : + X e j j j j j c B F ..y.j 2 a a d a 2 o q Q H A N N B B F / A : 6 ",
"; e a j j j j 3 c c j j h : 7 { V j * ; 7 n e Z 1.H H / a o . . ; 7 7 7 e r p j c b F %.: & , 2 2 1 > & 8 j c x x x c c v c & . ",
"& & 1 9 4 = @ > a 7 7 1 , & c %.F A 6 . $ N 9 a N c j h p @ . . . X o O % 5 0 w i j v g * 1 t M 4.s.8.F > % 1 0 r i i p p e @ # ",
"} c 9 & X % 0 } h.e.5.j O r I c j t , ; > 7 * % 5 7 6 5 1 ; h $ + 9 e ; . O > 7 9 r q # t h.h.0.:./ Q | u . . O $ ; > ; $ + 9 T ",
"....%.Z 2 a y.:.....%.,.e N c p 0 2 L 8.p.n + . . o o o . : B * q ..:.} d 1 = 2 : 2 5 & t ( F N b v v M 5 % 4 > O . . # O . a ..",
"N N A W v < B A B M N B a r i 0 > M :.H Q ..q . : x j p 9 1 q + t N A Q ,.e.6.p.{ i.h.B 0 c j j h d h i 2 D l.a.c O & K Z 2 : a ",
"9 a j j q # e j j j p 1 = c L Z t t l c c c c : c ( F F I B * . 6 j c c N Z F I I I F Z 9 > 1 6 5 4 ; > M 3.../ F = t 0.:.F > O ",
"O , 4 * O . = 9 e 0 ; . @ a j j a % = 2 7 e e % = a j j j a + # & : 9 r r a j x c c c c 7 ; r Z Z 4 O c ..H A b c 1 a Q F B 9 . ",
"@ i c 5 + . . & = @ X . . @ O = * e M > X * ; o . + ; 4 7 = * Z c O o & & * 2 e t i i e 2 ] u.u.g.T = N H M j d i : j N c c r o ",
"n 0.:.I 6 X . p Z 3 X ; x K 5 . = F F t : K Z * . @ : > & X # 2 3 $ * @ . . X & , 4 2 $ t %.Q H H H 6 9 j t 0 7 > $ a j h p 2 # ",
"I B c 0 $ 9 : t j 7 $ ' v.c.p.j 9 1 1 % : c 7 5 c L ,.%.M t a X , ' p.} c : X o O 1 q < v A N v c c j = 5 8 1 O . . & > > & 1 B ",
"c j 9 = + 2 & % % $ : a.s.,.0.g.h.Z ; . 1 a = a :.F A N c N v & D g.u.g.z.5.c C V > . + i c x j j j h , > 6 9 5 : @ X O + . a / ",
"7 : $ V r . X + > e 0 6...H H H Q :.j 4 s.c.V * r a a d r 2 2 & F Q Q Q Q ..,.0.g.] : . $ 2 e r r e 9 $ . 2 7.h.s.' Z L } t 6 t ",
": * + a r o 9 A q O & I F M c c b c j c z.0.0.5 X # * > ; X . X j Q H H F F H H Q ..B $ O : ; 2 1 > $ . @ A ,.| ..:.u.g.g./ * O ",
"a.p.j & + O j B p o * F b x x x x x i j 0.Q Q A < . $ q r : . . 2 v c c c c c v M N A 0 5 B & O 7 p i : + c A B B B B B B B : r ",
"u.0.0.a O X = > # . = N c c c c x a 7 > I F B M j = j x.z.] > < & e j c x x c c x c d & @ 8 8 M s.s.u.B & : h x x c x j j q & D ",
"Q F A A 8 . $ M j O @ p j j j a r 0 ; o a c x x c j i.3...Q u A a @ = 7 r t i p a p > . 2 { h.0...Q H A 8 . * 7 e r r e 7 , $ Z ",
"B c c c t o i v.l.d + 2 e w 0 9 4 = X . : j j j d 0 B | Q | q > 2 # + X = 7 0 0 0 > . @ L u...H F N v c t O . O 2 , & @ r %.6 g ",
"j j j p 7 O c u.u.h.5 + : 1 > 0 i 8 : o # 0 e e 0 & a W A F q . = Z N * + > ; > ; + + : 8.Q B v c x d t 9 + . # a c = . a Z 5 = ",
"7 r e 7 * X j | Q :.M & . . = L / } L V 5 : 0 0 6 : v v c c 5 . $ l c : c Z & 5 2 e c 5 F N c j d i 0 0 6 @ * 7 t a 9 : = 7 : . ",
"# & & @ . . 9 F F F Q A 2 . + = : 1 9 p 1 # 7 7 $ = c x x c 7 q 8 & : O : 0 $ : & 3 c 2 t j a r 7 > = * + $ L g.u.0.0.0.T e O . ",
". . . O t t 0 c c c c N j O + 5 p j 2 $ o * r q @ 1 j x c c 5 y N & @ > a B M j 2 O & O @ = ; = $ * : O . 2 I Q H H Q Q :.I = . ",
"1 e 8 $ 0 7 2 j x c c x a + t :.:.:.%.Z c c e O X 2 e r t i 2 + & 9 L %.:.:.:.:.I = . . . . ; 5 * v F t o 0 c c c c b M N N > . ",
"s.z.l.j + . & r p a d i 2 X t B b N B F ..0.8.2 . * 9 0 0 0 4 X . c ..F F F F H H 8 . . < x 5.z.L i 0 1 . # 4 e e r e 0 0 7 @ = ",
",...:.s.a . # 7 0 0 9 > t 9 7 c x x c c c b Z b & . , 0 0 0 6 $ O t c c c c c x x : . 9 i.h.:.:.0.,.j 2 $ . X # & % + O o X . a ",
"F A F Q / 9 + $ : = $ . 9 a : i h j j j j j j j > O * 7 0 7 9 Z 0 2 0 e r e 0 0 2 $ > { 0.Q Q Q Q Q :.,.M @ . % 9 a 7 = * & O : ",
"q j c c B / c 7 @ . X 1 e 2 O + ; 5 0 0 0 e 9 = 1 Z t # & # + r 0 O # & 5 7 ; @ # j a I Q Q F B N N b c t O : F 0.3.:.} %.} j @ ",
"O 2 a x c c Z I j @ : p.x.i.j $ . O = 4 > & + . $ q 3 . . . = 7 = . 0 N I %.c O : M 5 c A N c j d p t 4 + . t | H F F F F H B & ",
"@ 5 , 0 a h j j r O : p.0.3.u.Z 1 O e %.Z & * i x j 9 1 : $ > a t o 5 j j a t $ 1 r # @ * > 1 1 , ; $ X . X 6 M c c c c c c a $ ",
"2 F 9 + > 5 6 5 , # & F Q H F Q F v q j t & L z.k.g.g.a.s.D $ X O & t x x j 4 O @ % . + 5 t e 8 1 X . + a c 2 9 e e r t t 0 ; . ",
"& , = * t q # 2 Z N : j b c c c c v t # O t 1.Q Q H H I I ..6 % & c 3.:.:.0.,.V 0 = @ & j B a 6 * X @ & a B 5 X O o O # # O X # ",
"S 8 . O % 1 5 : > 1 & 0 r i p r r t 5 . . t F M v b v c c M q 0 8 k B N M B F W %./ M & O & = = 7 c K Z 5 > $ . X 1 9 8 , . : ` ",
"v.s.7 . & ] z.4.7 . + ; > > > , > & 0 q $ = d j j j j h j d 5 @ * 9 e p d d j c v B ..0 . e 5.6.y.0.3.u.e.d o . 4 a.x.x.K O 0 x.",
"0.0.5.< * N / u.5.t $ . * q 9 # . X a F e X * , 4 5 7 7 7 5 % . o $ & * 2 7 0 r p a j = % / :.Q H H F F H F 1 . e x.s.,.b o , p.",
"Q Q ..J > + s Z I ,.F i & = & @ & O @ : & . . . . X * 0 8 $ X + o a M 2 X O $ = ; * + X + v F N c x d d d j 7 $ Z :.H A q . + c ",
"A A F Q k o 5 c c N H 3.i . * Z ] B V Z t * + o X . @ 2 q & t Z : = a 0 . . . . . . & x * * 0 9 7 5 6 7 7 4 $ e u.H N j =   * N ",
"c c c M a X @ e j j c F l O j 3.......3.u.*.L B x + . 9 i.M 2 r : d 5.L x e q r > . 5 J q . . X X O O O % r 0 h ..b h 9 # = : c ",
"d a d j 5 # X % 9 e p j r O l W H F F F F F W ..%.q O Z z.,.1   : p.0.3.u.0.8.0.L 9 * 2 > O # ; e V i & & l j q B h e 2 i *.6 a ",
"0 0 0 5 * N r o @ ; > 2 * . * 5 0 i a a a h d a t : * } ..Q t & 1 W F B N b c c j a & p S D J 6.g.h.y.F q $ + * a 0 9 : c F 8 : ",
", 6 4 # o q r O . . # c c = . . X $ * ; > 1 5 ; +   2 I B N r M < q a a p i t e 6 & ; >.:...H H F A B b c : . @ 7 9 > $ e r = o ",
"X O o . . % : % X X * N B 7 o % + O . . . * N Z c # 8 M c i ; 8 $ 7 e 2 ; & $ # X . * Z N c x j h p p p e $ . X $ @ . X $ O . . ",
". . o & t 4.p.*.M B q $ * = d 5.L L a * X O q j a @ 9 a r * . . 9 ,./ 8   . . * 9 : + 9 e 7 2 2 , & % % $ $ i : X 1 q 0 9 5 $ . ",
"X : n } 0.,./ J J I A 1 @ L s.,.:.:.0.} c 2 & # O . : 5 % & j q : q 5 9 7 @ . e I Z * . X . > Z B b : . . t I 5 a ,.,.:.:.,.B * ",
"O b ,.F N b j a t a a ; @ L ..H A B A H / } L N > . O O . & j p o $ r 7.z.D 2 + 9 p & . . o > j t q 1 % + = e & k F B b c b c & ",
". 3 j a r 7 > $ @ $ % X + N F c c x j j c c M N = . . $ : 1 @ o > ' y.,.%.3.6.0 + # o . 1 Z S M M Z { *.V & o # : 5 7 9 0 0 2 o ",
". X * ; , 1 $ X * 0 5 & + q a a p r e e r r i 9 O X 7 ] a.h.i O M 0.Q H H H Q ,.c > X # D h.s.t.0.:...| F - o 3 9 $ . X + @ O . ",
". . . . * 6 = & { h.-.F a & @ % & & = : : , & o X d s.u.,.:.l & T H B M b v b M N t o $ B Q H F B B N c 8 o X 2 e e e 2 & c c 0 ",
": 9 9 8 1 $ X o t T Q H A j 1 X . . 1 e : O . o i s.0.H A B 8 $ B N j h p i r e 9 : O . 0 N c x j j a < X * a e.s.u.s.e.V a b t ",
"p.g.y.u.s.*.M 8 * : f c j p 6 o . . 2 j j > . e h.:.A c c d & O q a 9 , ; & $ # o > c & O 1 w e w 7 $ . & K ,.I F B B A F > % d ",
",.Q Q Q Q ..%.,.T c 1 , 2 : * & 2 9 1 & # o . x ,.B c j a > 9 j & + o . . . O $ O & a : * > = = = + . . % b B c j j h d q O $ { ",
"F B M c c c c b N F t . * i S } 0.0...A g = . & q i t 0 ; . < c < . X + + > B *.M & & M *.e.Z p : . X 2 t 9 2 2 2 2 > = @ . @ N ",
"c a i e 9 9 0 0 w e > + Z k.0.Q H F A B N j = x B t : & o ; 1 @ + r C L A %.y...:.B 9 I Q Q ..,.T 8 : e.z.p.a O . . . 9 N 8 $ j ",
": * % # O o O # @ O . # T ..F N c c x j h e * N ..A 6 . 2 6.M o , s.3...| H A B N N t t M N N B A c 0 %.....,.c 7 : o 7 F c # & ",
"2 * o O 5 r 1 + . # 1 % t b j a t e q 0 7 & . = e 9 : . 7 %.j O : Q H F B c j j d a 5 * p j j j j r < b B N Z I %.} a & 1 , & 1 ",
"Z N > * N Z c > . * j t # $ $ ; 9 ; @ @ O . = q w 7 9 * & a 1 # $ 1 8 9 7 5 > * & % O . $ 1 7 9 : 5 q : 5 t a a j c c 3 . . 7 b ",
"& 1 & X 2 q , $ * & & $ X . . d -.B > . $ p } k.u.0.0.A 2 + O e c 5 . . . . + : 7 8 : o . > & O . 3 c $ . $ : 2 5 5 , O . X X O ",
"r e 7 * < 3 , L e.7.Z 9 # . . % 0 t & * ` z.3.| Q H F B c > . + * ; ; 2 5 h L e.h.u.%.r @ t & @ @ , i 0 w j x 0 % X . # 0 M M j ",
"u.0.0.L 5 . : %.%.....:.N a 2 * & + . j k...F F B b c x j 9 . . ; M 8.u.0.3.%.Q H B b a $ + 2 ' K 6.g.h.g.u.e.,.t . X x h.t.u.u.",
"B B B N t $ & c N N M b M M c d t % O t b c j d a a p i e 1 2 * a 3.| F Z B M j 0 5 e r & . t ,.F F A B N b j t : : # a F F A B ",
"0 0 0 = 1 M : 4 9 e r e e e 9 6 2 % 9 > 1 e e 2 7 9 6 4 : $ b c < g j i e 0 7 > d t d L q . * t r a a p r 0 ; O $ Z a & 5 e t e ",
"O O O . & j : X O $ $ & $ @ + O X X 2 & 1 r 1 O 9 p = o . . = 3 O O O O o o . & c j & ; $ . . o @ % * ; & + . . X 2 8 o . o O + "
};
